# xmcd
#
# Track frame offsets:
#	150
#	16795
#	34097
#	59202
#	79862
#	103122
#	121927
#	146442
#	161845
#	183040
#
# Disc length: 2632 seconds
#
# Revision: 1
# Processed by: cddbd v1.5PL3 Copyright (c) Steve Scherf et al.
# Submitted via: CDex 1.50Beta5
#
DISCID=800a460a
DTITLE=ROCKING TIME - ROCKING TIME
DYEAR=2002
DGENRE=Rock
TTITLE0=燃えあがる熱い心
TTITLE1=ありふれた言葉
TTITLE2=今日の気分は
TTITLE3=君の前では
TTITLE4=君を待つよ
TTITLE5=ROCK YOUR BABY
TTITLE6=リズム
TTITLE7=PRETEND
TTITLE8=Sha-la-la
TTITLE9=季節が変わる頃
EXTD=
EXTT0=
EXTT1=
EXTT2=
EXTT3=
EXTT4=
EXTT5=
EXTT6=
EXTT7=
EXTT8=
EXTT9=
PLAYORDER=
